<mxfile host="app.diagrams.net" modified="2022-05-08T10:14:00.605Z" agent="5.0 (Macintosh; Intel Mac OS X 10_15_7) AppleWebKit/537.36 (KHTML, like Gecko) Chrome/101.0.4951.54 Safari/537.36" etag="KJ5K7O9pxeQ3-Ty0E_Sp" version="18.0.2" type="github">
  <diagram id="nHBJcKgBxQZSZA_yJ_oJ" name="第 1 页">
    <mxGraphModel dx="786" dy="789" grid="1" gridSize="10" guides="1" tooltips="1" connect="1" arrows="1" fold="1" page="1" pageScale="1" pageWidth="827" pageHeight="1169" math="0" shadow="0">
      <root>
        <mxCell id="0" />
        <mxCell id="1" parent="0" />
        <mxCell id="ek3MGB_Vx_ngcHtbuuWx-22" value="" style="rounded=0;whiteSpace=wrap;html=1;dashed=1;strokeWidth=2;fillColor=none;perimeterSpacing=0;" parent="1" vertex="1">
          <mxGeometry x="50" y="360" width="670" height="140" as="geometry" />
        </mxCell>
        <mxCell id="ek3MGB_Vx_ngcHtbuuWx-1" value="" style="shape=mxgraph.cisco.routers.router;sketch=0;html=1;pointerEvents=1;dashed=0;fillColor=#7EA6E0;strokeColor=#ffffff;strokeWidth=2;verticalLabelPosition=bottom;verticalAlign=top;align=center;outlineConnect=0;" parent="1" vertex="1">
          <mxGeometry x="312" y="280" width="78" height="53" as="geometry" />
        </mxCell>
        <mxCell id="ek3MGB_Vx_ngcHtbuuWx-3" value="" style="shape=mxgraph.cisco.security.firewall;sketch=0;html=1;pointerEvents=1;dashed=0;fillColor=#7EA6E0;strokeColor=#ffffff;strokeWidth=2;verticalLabelPosition=bottom;verticalAlign=top;align=center;outlineConnect=0;direction=east;flipH=1;" parent="1" vertex="1">
          <mxGeometry x="410" y="268" width="40" height="77" as="geometry" />
        </mxCell>
        <mxCell id="ek3MGB_Vx_ngcHtbuuWx-4" value="" style="shape=mxgraph.cisco.storage.cloud;sketch=0;html=1;pointerEvents=1;dashed=0;fillColor=#7EA6E0;strokeColor=#ffffff;strokeWidth=2;verticalLabelPosition=bottom;verticalAlign=top;align=center;outlineConnect=0;" parent="1" vertex="1">
          <mxGeometry x="80" y="200" width="155.08" height="70" as="geometry" />
        </mxCell>
        <mxCell id="ek3MGB_Vx_ngcHtbuuWx-5" value="" style="shape=mxgraph.cisco.computers_and_peripherals.ibm_mini_as400;sketch=0;html=1;pointerEvents=1;dashed=0;fillColor=#7EA6E0;strokeColor=#ffffff;strokeWidth=2;verticalLabelPosition=bottom;verticalAlign=top;align=center;outlineConnect=0;" parent="1" vertex="1">
          <mxGeometry x="114" y="380" width="50" height="80" as="geometry" />
        </mxCell>
        <mxCell id="ek3MGB_Vx_ngcHtbuuWx-7" value="" style="shape=mxgraph.cisco.computers_and_peripherals.ibm_mini_as400;sketch=0;html=1;pointerEvents=1;dashed=0;fillColor=#7EA6E0;strokeColor=#ffffff;strokeWidth=2;verticalLabelPosition=bottom;verticalAlign=top;align=center;outlineConnect=0;" parent="1" vertex="1">
          <mxGeometry x="560" y="380" width="50" height="80" as="geometry" />
        </mxCell>
        <mxCell id="ek3MGB_Vx_ngcHtbuuWx-10" value="" style="shape=mxgraph.cisco.computers_and_peripherals.ibm_mini_as400;sketch=0;html=1;pointerEvents=1;dashed=0;fillColor=#7EA6E0;strokeColor=#ffffff;strokeWidth=2;verticalLabelPosition=bottom;verticalAlign=top;align=center;outlineConnect=0;" parent="1" vertex="1">
          <mxGeometry x="420" y="625" width="50" height="80" as="geometry" />
        </mxCell>
        <mxCell id="ek3MGB_Vx_ngcHtbuuWx-26" value="" style="edgeStyle=orthogonalEdgeStyle;rounded=0;orthogonalLoop=1;jettySize=auto;html=1;strokeWidth=2;endArrow=none;endFill=0;" parent="1" source="ek3MGB_Vx_ngcHtbuuWx-12" target="ek3MGB_Vx_ngcHtbuuWx-17" edge="1">
          <mxGeometry relative="1" as="geometry" />
        </mxCell>
        <mxCell id="ek3MGB_Vx_ngcHtbuuWx-12" value="" style="shape=mxgraph.cisco.computers_and_peripherals.pc;sketch=0;html=1;pointerEvents=1;dashed=0;fillColor=#7EA6E0;strokeColor=#ffffff;strokeWidth=2;verticalLabelPosition=bottom;verticalAlign=top;align=center;outlineConnect=0;" parent="1" vertex="1">
          <mxGeometry x="312" y="390" width="78" height="70" as="geometry" />
        </mxCell>
        <mxCell id="ek3MGB_Vx_ngcHtbuuWx-13" value="" style="shape=mxgraph.cisco.computers_and_peripherals.pc;sketch=0;html=1;pointerEvents=1;dashed=0;fillColor=#7EA6E0;strokeColor=#ffffff;strokeWidth=2;verticalLabelPosition=bottom;verticalAlign=top;align=center;outlineConnect=0;" parent="1" vertex="1">
          <mxGeometry x="86" y="625" width="78" height="70" as="geometry" />
        </mxCell>
        <mxCell id="ek3MGB_Vx_ngcHtbuuWx-15" value="" style="shape=mxgraph.cisco.computers_and_peripherals.ibm_mini_as400;sketch=0;html=1;pointerEvents=1;dashed=0;fillColor=#7EA6E0;strokeColor=#ffffff;strokeWidth=2;verticalLabelPosition=bottom;verticalAlign=top;align=center;outlineConnect=0;" parent="1" vertex="1">
          <mxGeometry x="580" y="625" width="50" height="80" as="geometry" />
        </mxCell>
        <mxCell id="ek3MGB_Vx_ngcHtbuuWx-14" value="" style="shape=mxgraph.cisco.computers_and_peripherals.pc;sketch=0;html=1;pointerEvents=1;dashed=0;fillColor=#7EA6E0;strokeColor=#ffffff;strokeWidth=2;verticalLabelPosition=bottom;verticalAlign=top;align=center;outlineConnect=0;" parent="1" vertex="1">
          <mxGeometry x="604" y="684" width="30" height="30" as="geometry" />
        </mxCell>
        <mxCell id="ek3MGB_Vx_ngcHtbuuWx-27" style="edgeStyle=orthogonalEdgeStyle;rounded=0;orthogonalLoop=1;jettySize=auto;html=1;endArrow=none;endFill=0;strokeWidth=2;" parent="1" source="ek3MGB_Vx_ngcHtbuuWx-17" target="ek3MGB_Vx_ngcHtbuuWx-20" edge="1">
          <mxGeometry relative="1" as="geometry">
            <Array as="points">
              <mxPoint x="351" y="610" />
              <mxPoint x="274" y="610" />
            </Array>
          </mxGeometry>
        </mxCell>
        <mxCell id="ek3MGB_Vx_ngcHtbuuWx-28" style="edgeStyle=orthogonalEdgeStyle;rounded=0;orthogonalLoop=1;jettySize=auto;html=1;endArrow=none;endFill=0;strokeWidth=2;" parent="1" source="ek3MGB_Vx_ngcHtbuuWx-17" target="ek3MGB_Vx_ngcHtbuuWx-10" edge="1">
          <mxGeometry relative="1" as="geometry">
            <Array as="points">
              <mxPoint x="351" y="610" />
              <mxPoint x="445" y="610" />
            </Array>
          </mxGeometry>
        </mxCell>
        <mxCell id="ek3MGB_Vx_ngcHtbuuWx-29" style="edgeStyle=orthogonalEdgeStyle;rounded=0;orthogonalLoop=1;jettySize=auto;html=1;endArrow=none;endFill=0;strokeWidth=2;entryX=0.5;entryY=0;entryDx=0;entryDy=0;entryPerimeter=0;" parent="1" source="ek3MGB_Vx_ngcHtbuuWx-17" target="ek3MGB_Vx_ngcHtbuuWx-15" edge="1">
          <mxGeometry relative="1" as="geometry">
            <Array as="points">
              <mxPoint x="351" y="610" />
              <mxPoint x="605" y="610" />
            </Array>
          </mxGeometry>
        </mxCell>
        <mxCell id="ek3MGB_Vx_ngcHtbuuWx-30" style="edgeStyle=orthogonalEdgeStyle;rounded=0;orthogonalLoop=1;jettySize=auto;html=1;entryX=0.5;entryY=0;entryDx=0;entryDy=0;entryPerimeter=0;endArrow=none;endFill=0;strokeWidth=2;" parent="1" source="ek3MGB_Vx_ngcHtbuuWx-17" target="ek3MGB_Vx_ngcHtbuuWx-13" edge="1">
          <mxGeometry relative="1" as="geometry">
            <Array as="points">
              <mxPoint x="351" y="610" />
              <mxPoint x="125" y="610" />
            </Array>
          </mxGeometry>
        </mxCell>
        <mxCell id="ek3MGB_Vx_ngcHtbuuWx-41" style="edgeStyle=orthogonalEdgeStyle;rounded=0;orthogonalLoop=1;jettySize=auto;html=1;fontFamily=Georgia;fontSize=16;endArrow=none;endFill=0;strokeWidth=2;" parent="1" source="ek3MGB_Vx_ngcHtbuuWx-17" edge="1">
          <mxGeometry relative="1" as="geometry">
            <mxPoint x="710" y="610" as="targetPoint" />
            <Array as="points">
              <mxPoint x="351" y="610" />
              <mxPoint x="720" y="610" />
            </Array>
          </mxGeometry>
        </mxCell>
        <mxCell id="ek3MGB_Vx_ngcHtbuuWx-17" value="" style="shape=mxgraph.cisco.routers.router;sketch=0;html=1;pointerEvents=1;dashed=0;fillColor=#7EA6E0;strokeColor=#ffffff;strokeWidth=2;verticalLabelPosition=bottom;verticalAlign=top;align=center;outlineConnect=0;" parent="1" vertex="1">
          <mxGeometry x="312" y="532" width="78" height="53" as="geometry" />
        </mxCell>
        <mxCell id="ek3MGB_Vx_ngcHtbuuWx-18" value="" style="shape=mxgraph.cisco.security.firewall;sketch=0;html=1;pointerEvents=1;dashed=0;fillColor=#7EA6E0;strokeColor=#ffffff;strokeWidth=2;verticalLabelPosition=bottom;verticalAlign=top;align=center;outlineConnect=0;direction=east;flipH=1;" parent="1" vertex="1">
          <mxGeometry x="400" y="520" width="40" height="77" as="geometry" />
        </mxCell>
        <mxCell id="ek3MGB_Vx_ngcHtbuuWx-19" value="" style="shape=mxgraph.cisco.computers_and_peripherals.printer;sketch=0;html=1;pointerEvents=1;dashed=0;fillColor=#7EA6E0;strokeColor=#ffffff;strokeWidth=2;verticalLabelPosition=bottom;verticalAlign=top;align=center;outlineConnect=0;" parent="1" vertex="1">
          <mxGeometry x="440" y="682" width="40" height="26.5" as="geometry" />
        </mxCell>
        <mxCell id="ek3MGB_Vx_ngcHtbuuWx-20" value="" style="shape=mxgraph.cisco.computers_and_peripherals.ibm_mini_as400;sketch=0;html=1;pointerEvents=1;dashed=0;fillColor=#7EA6E0;strokeColor=#ffffff;strokeWidth=2;verticalLabelPosition=bottom;verticalAlign=top;align=center;outlineConnect=0;" parent="1" vertex="1">
          <mxGeometry x="249" y="620" width="50" height="80" as="geometry" />
        </mxCell>
        <mxCell id="ek3MGB_Vx_ngcHtbuuWx-24" value="" style="endArrow=none;html=1;rounded=0;entryX=0.5;entryY=1;entryDx=0;entryDy=0;entryPerimeter=0;strokeWidth=2;" parent="1" source="ek3MGB_Vx_ngcHtbuuWx-12" target="ek3MGB_Vx_ngcHtbuuWx-1" edge="1">
          <mxGeometry width="50" height="50" relative="1" as="geometry">
            <mxPoint x="380" y="570" as="sourcePoint" />
            <mxPoint x="430" y="520" as="targetPoint" />
          </mxGeometry>
        </mxCell>
        <mxCell id="ek3MGB_Vx_ngcHtbuuWx-33" value="DMZ" style="text;html=1;align=center;verticalAlign=middle;resizable=0;points=[];autosize=1;strokeColor=none;fillColor=none;fontSize=16;" parent="1" vertex="1">
          <mxGeometry x="60" y="470" width="50" height="20" as="geometry" />
        </mxCell>
        <mxCell id="ek3MGB_Vx_ngcHtbuuWx-34" value="Web服务器" style="text;html=1;align=center;verticalAlign=middle;resizable=0;points=[];autosize=1;strokeColor=none;fillColor=none;fontSize=16;" parent="1" vertex="1">
          <mxGeometry x="164" y="430" width="100" height="20" as="geometry" />
        </mxCell>
        <mxCell id="ek3MGB_Vx_ngcHtbuuWx-35" value="&lt;font face=&quot;Georgia&quot;&gt;堡垒主机&lt;/font&gt;" style="text;html=1;align=center;verticalAlign=middle;resizable=0;points=[];autosize=1;strokeColor=none;fillColor=none;fontSize=16;" parent="1" vertex="1">
          <mxGeometry x="390" y="390" width="80" height="30" as="geometry" />
        </mxCell>
        <mxCell id="ek3MGB_Vx_ngcHtbuuWx-36" value="边界网络" style="text;html=1;align=center;verticalAlign=middle;resizable=0;points=[];autosize=1;strokeColor=none;fillColor=none;fontSize=16;fontFamily=Georgia;" parent="1" vertex="1">
          <mxGeometry x="640" y="470" width="80" height="20" as="geometry" />
        </mxCell>
        <mxCell id="ek3MGB_Vx_ngcHtbuuWx-37" value="SMTP服务器" style="text;html=1;align=center;verticalAlign=middle;resizable=0;points=[];autosize=1;strokeColor=none;fillColor=none;fontSize=16;fontFamily=Georgia;" parent="1" vertex="1">
          <mxGeometry x="450" y="450" width="110" height="20" as="geometry" />
        </mxCell>
        <mxCell id="ek3MGB_Vx_ngcHtbuuWx-38" value="外部包过滤器" style="text;html=1;align=center;verticalAlign=middle;resizable=0;points=[];autosize=1;strokeColor=none;fillColor=none;fontSize=16;fontFamily=Georgia;" parent="1" vertex="1">
          <mxGeometry x="460" y="296.5" width="110" height="20" as="geometry" />
        </mxCell>
        <mxCell id="ek3MGB_Vx_ngcHtbuuWx-39" value="Internet外部网络" style="text;html=1;align=center;verticalAlign=middle;resizable=0;points=[];autosize=1;strokeColor=none;fillColor=none;fontSize=16;fontFamily=Georgia;" parent="1" vertex="1">
          <mxGeometry x="87.53999999999999" y="225" width="140" height="20" as="geometry" />
        </mxCell>
        <mxCell id="ek3MGB_Vx_ngcHtbuuWx-40" value="内部包过滤器" style="text;html=1;align=center;verticalAlign=middle;resizable=0;points=[];autosize=1;strokeColor=none;fillColor=none;fontSize=16;fontFamily=Georgia;" parent="1" vertex="1">
          <mxGeometry x="189" y="548.5" width="110" height="20" as="geometry" />
        </mxCell>
        <mxCell id="ek3MGB_Vx_ngcHtbuuWx-42" value="内部网络" style="text;html=1;align=center;verticalAlign=middle;resizable=0;points=[];autosize=1;strokeColor=none;fillColor=none;fontSize=16;fontFamily=Georgia;" parent="1" vertex="1">
          <mxGeometry x="640" y="620" width="80" height="20" as="geometry" />
        </mxCell>
        <mxCell id="Hk_b8k6l5leF3CeIbAFU-4" value="" style="html=1;verticalLabelPosition=bottom;align=center;labelBackgroundColor=#ffffff;verticalAlign=top;strokeWidth=2;strokeColor=#000000;shadow=0;dashed=0;shape=mxgraph.ios7.icons.flash;rotation=-60;fillColor=none;" vertex="1" parent="1">
          <mxGeometry x="254.17" y="234.09" width="26" height="73.5" as="geometry" />
        </mxCell>
      </root>
    </mxGraphModel>
  </diagram>
</mxfile>
